# xmcd CD database file
#
# Track frame offsets:
#	150
#	10997
#	21920
#	35030
#	48955
#	61425
#	70985
#	81592
#	91932
#	106320
#	116092
#	130575
#	139905
#	153615
#	166822
#	180055
#	191432
#	207907
#	219580
#	236020
#	246262
#	259275
#	270252
#
# Disc length: 3736 seconds
#
# Revision: 0
# Processed by: cddbd v1.5.2PL0 Copyright (c) Steve Scherf et al.
# Submitted via: CDex 1.51
#
DISCID=460e9617
DTITLE=Chicago Ain't Nothin' But A Blues Band - Chicago Ain't Nothin' But A Blues Band
DYEAR=1900
DGENRE=Blues
TTITLE0=Recession Blues - Sunnyland Slim
TTITLE1=Everything's Gonna Be All Right - Sunnyland Slim
TTITLE2=I Don't Know Why - Eddy Clearwater
TTITLE3=A-Minor Cha-Cha - Eddy Clearwater
TTITLE4=Boogie Woogie Baby - Eddy Clearwater
TTITLE5=Let's Get High - Morris Pejoe
TTITLE6=Baby I'm Lonely - Morris Pejoe
TTITLE7=How Can You Do It? - Henry Gray
TTITLE8=All Pretty Women - Jo Jo Williams
TTITLE9=Rock'N' Roll Boogie - Jo Jo Williams
TTITLE10=Why Did We Have To Part - Unknown
TTITLE11=I Am A Lucky Lucky Man - Johnny Rogers
TTITLE12=Blues For Atomic-H - Little Mack Simmons
TTITLE13=You Know You Don't Love Me - George and His House Rockers
TTITLE14=Morning Love Blues - George and His House Rockers
TTITLE15=Hillbilly Blues - Eddy Clearwater
TTITLE16=Jumpin' At Charley's - Eddy Clearwater
TTITLE17=Neckbones Everyday - Eddy Clearwater
TTITLE18=Sad And Blue - Harmonica George
TTITLE19=Sputnik Music - Harmonica George
TTITLE20=Women's World - Jo Jo Williams
TTITLE21=Davy Crockett's Jingle Bells - Jo Jo Williams
TTITLE22=You Can't Live In This Big World By Yourself - Jo Jo Williams
EXTD=
EXTT0=
EXTT1=
EXTT2=
EXTT3=
EXTT4=
EXTT5=
EXTT6=
EXTT7=
EXTT8=
EXTT9=
EXTT10=
EXTT11=
EXTT12=
EXTT13=
EXTT14=
EXTT15=
EXTT16=
EXTT17=
EXTT18=
EXTT19=
EXTT20=
EXTT21=
EXTT22=
PLAYORDER=
